# xmcd
#
# Track frame offsets:
#	150
#	12820
#	25393
#	35670
#	45353
#	57898
#	69743
#	80843
#	94531
#	108535
#	120393
#	129152
#	147124
#	165366
#	178664
#	187809
#	201565
#	209796
#	224615
#	234911
#	250034
#	263960
#	276315
#	288348
#	293513
#	298809
#	303451
#	307093
#
# Disc length: 4184 seconds
#
# Revision: 1
# Processed by: cddbd v1.5.1PL0 Copyright (c) Steve Scherf et al.
# Submitted via: audiograbber 1.83.01
#
DISCID=a710561c
DTITLE=Cornell Hurd Band - Cen-Tex Serenade
DYEAR=1900
DGENRE=
TTITLE0=Smokey Shadows
TTITLE1=Cold Kisses
TTITLE2=I Play With Girls My Own Age
TTITLE3=Barbwire
TTITLE4=From A Jack To A King
TTITLE5=Loving You Was Never Enough
TTITLE6=Forever In The Texas Sky
TTITLE7=It Gets Like This Every Christmas
TTITLE8=I've Watched You Fall In Love Before
TTITLE9=Big Damn State, Long Damn Road Boogie
TTITLE10=Brother, It's All Lunchmeat To Me
TTITLE11=Spanish Harlem
TTITLE12=What You Threw Away
TTITLE13=Let's Flirt
TTITLE14=Slow Burn
TTITLE15=Loose Diamnond
TTITLE16=Please Save A Little For Me
TTITLE17=A Face In The Crowd
TTITLE18=Tall Drink Of Water
TTITLE19=The Raging Bull
TTITLE20=Heartache For Heartache
TTITLE21=Groovy Kind Of Love
TTITLE22=Black Nylons
TTITLE23=Subject To Change Without Notice
TTITLE24=Buck Rogers Or The Good Old Days
TTITLE25=The Corpus Christi Rock
TTITLE26=The Pop-Up Blues
TTITLE27=Swing Away The Blues
EXTD=
EXTT0=
EXTT1=
EXTT2=
EXTT3=
EXTT4=
EXTT5=
EXTT6=
EXTT7=
EXTT8=
EXTT9=
EXTT10=
EXTT11=
EXTT12=
EXTT13=
EXTT14=
EXTT15=
EXTT16=
EXTT17=
EXTT18=
EXTT19=
EXTT20=
EXTT21=
EXTT22=
EXTT23=
EXTT24=
EXTT25=
EXTT26=
EXTT27=
PLAYORDER=
